<?xml version="1.0" encoding="utf-8"?>
<svg version="1.1" id="Capa_1" xmlns="http://www.w3.org/2000/svg" x="0" y="0" viewBox="0 0 426.7 426.6" xml:space="preserve">
  <style>
    .st1{fill:#1976D2}
  </style>
  <path d="M252.9 323.1l-64-64.1c-4.2-4.2-10.9-4.2-15.1 0-2 2-3.1 4.7-3.1 7.5v149.4c0 4.6 2.9 8.7 7.3 10.1 1.1.4 2.2.6 3.4.6 3.4 0 6.5-1.6 8.5-4.3l64-85.3c3.2-4.2 2.7-10.2-1-13.9z" fill="#64B5F6"/>
  <path class="st1" d="M206 299.2l-64-21.3c-5.6-1.9-11.6 1.1-13.5 6.7-.7 2.2-.7 4.6 0 6.7l42.7 128c1.5 4.4 5.5 7.3 10.1 7.3h.7c4.8-.3 8.8-3.8 9.8-8.5l21.3-106.7c1.1-5.3-1.9-10.5-7.1-12.2z"/>
  <path d="M422.1 2c-3.4-2.4-7.9-2.6-11.5-.5L5.3 236.1c-5.1 3-6.8 9.5-3.9 14.6 1.3 2.3 3.4 4 5.9 4.8l191.6 63.9 148.9 63.8c5.4 2.3 11.7-.2 14-5.6.3-.8.6-1.5.7-2.3l64-362.7c.7-4.1-1-8.3-4.4-10.6z" fill="#2196F3"/>
  <path class="st1" d="M424.7 16.9c3.4-4.8 2.4-11.4-2.4-14.9-4.3-3.1-10.1-2.6-13.8 1.1L130.3 296.5l80.3 27.7L424.7 16.9z"/>
</svg>
