<?xml version="1.0" ?>
<svg xmlns="http://www.w3.org/2000/svg" viewBox="0 0 512 512">
  <path d="M485.98 113.141c-16.923 7.506-35.109 12.578-54.197 14.858 19.48-11.679 34.445-30.171 41.49-52.208-18.234 10.814-38.43 18.668-59.925 22.899-17.213-18.341-41.738-29.799-68.88-29.799-52.114 0-94.368 42.25-94.368 94.364 0 7.396.834 14.598 2.444 21.505-78.427-3.936-147.962-41.504-194.504-98.597-8.123 13.937-12.777 30.146-12.777 47.441 0 32.739 16.659 61.623 41.98 78.546-15.469-.491-30.02-4.735-42.742-11.804-.009.395-.009.788-.009 1.188 0 45.721 32.529 83.859 75.698 92.531-7.918 2.156-16.255 3.311-24.861 3.311-6.081 0-11.992-.593-17.755-1.693 12.009 37.488 46.858 64.773 88.153 65.533-32.296 25.312-72.985 40.396-117.198 40.396-7.617 0-15.128-.446-22.511-1.32 41.762 26.775 91.365 42.4 144.655 42.4 173.574 0 268.493-143.794 268.493-268.496 0-4.091-.092-8.16-.273-12.208 18.439-13.304 34.437-29.924 47.087-48.847z" fill-rule="evenodd" clip-rule="evenodd" fill="#2CA7E0"/>
</svg>
